<?xml version="1.0" encoding="UTF-8"?>
<svg id="_圖層_1" data-name="圖層 1" xmlns="http://www.w3.org/2000/svg" version="1.1" viewBox="0 0 364.84 55.12">
  <defs>
    <style>
      .cls-1 {
        fill: #f8b62d;
      }

      .cls-1, .cls-2 {
        stroke-width: 0px;
      }

      .cls-2 {
        fill: #fff;
      }
    </style>
  </defs>
  <path class="cls-2" d="M21.8,51.91c5.98,0,7.8-1.36,8.99-3.5.51-.93,1.02-2.86,1.14-3.86.11-.71.23-1.14.51-1.14.34,0,.46.29.46,1.64,0,2.21-.8,6.43-1.14,8.21-.34,1.71-.4,1.86-1.71,1.86-9.5,0-19.07-.36-29.03-.36-.68,0-1.02-.07-1.02-.57,0-.36.11-.71.8-2,7.82-14.8,15.73-29.61,23.11-44.47.88-1.77-.5-3.79-2.58-3.79h-7.9c-2.9,0-6.37.21-8.2,1.43-2.05,1.36-3.07,4-3.24,5.64-.11,1.07-.34,1.29-.63,1.29s-.34-.36-.34-.93c0-.86.85-7.35,1.14-9.5.11-1,.23-1.36.57-1.36.51,0,.85.43,2.39.5,5.41.29,8.14.21,9.9.21h15.88c.85,0,1.14.14,1.14.57,0,.29,0,.43-.23.86-7.61,15.14-15.51,30.28-23.47,45.41-.93,1.77.44,3.85,2.54,3.85h10.91Z"/>
  <path class="cls-2" d="M66.65,33.91c-.28,0-.46.21-.57.57l-3.41,12.64c-.51,1.78-.8,3.5-.8,4.78,0,1.43,1.08,2.07,2.05,2.07h.51c.57,0,.74.14.74.43,0,.43-.51.57-1.02.57-1.37,0-3.64-.21-4.27-.21s-3.76.21-6.43.21c-.74,0-1.08-.14-1.08-.57,0-.29.28-.43.8-.43.4,0,.91-.07,1.37-.14,2.62-.43,3.76-3.14,4.78-6.71L72.23,2.78c.68-2.36.91-2.78,1.25-2.78s.57.36,1.25,2.57c.85,2.71,9.79,32.2,13.26,43.05,2.05,6.35,3.7,7.5,4.89,7.93.85.36,1.76.43,2.22.43.34,0,.63.07.63.43,0,.43-.51.57-1.14.57-.85,0-5.01,0-8.94-.14-1.08-.07-1.71-.07-1.71-.5,0-.29.17-.43.4-.5.34-.14.68-.78.34-1.93l-5.29-17.56c-.11-.29-.23-.43-.51-.43h-12.24ZM78.15,31.34c.28,0,.28-.21.23-.5l-5.41-19.28c-.28-1.07-.57-1.07-.85,0l-5.01,19.28c-.11.36,0,.5.17.5h10.87Z"/>
  <path class="cls-2" d="M150.2,23.63c.17,0,.34-.07.34-.43v-1.5c0-11.14,0-13.14-.11-15.42-.11-2.43-.57-3.57-2.45-4.07-.46-.14-1.42-.21-1.94-.21-.23,0-.46-.14-.46-.43,0-.43.28-.57.91-.57,2.56,0,6.15.21,6.43.21s3.87-.21,5.58-.21c.63,0,.91.14.91.57,0,.29-.23.43-.46.43-.4,0-.74.07-1.42.21-1.54.36-1.99,1.57-2.11,4.07-.11,2.28-.11,4.28-.11,15.42v12.57c0,6.85,0,12.49.28,15.49.17,2.07.51,3.64,2.22,3.93.8.14,2.05.29,2.56.29.34,0,.46.21.46.43,0,.36-.28.57-.91.57-3.13,0-6.72-.21-7-.21s-3.87.21-5.58.21c-.63,0-.91-.14-.91-.57,0-.21.11-.43.46-.43.51,0,1.19-.14,1.71-.29,1.14-.29,1.42-1.86,1.65-3.93.28-3,.28-8.64.28-15.49v-7.5c0-.29-.17-.43-.34-.43h-24.13c-.17,0-.34.07-.34.43v7.5c0,6.85,0,12.49.28,15.49.17,2.07.51,3.64,2.22,3.93.8.14,2.05.29,2.56.29.34,0,.46.21.46.43,0,.36-.28.57-.91.57-3.13,0-6.72-.21-7-.21s-3.87.21-5.58.21c-.63,0-.91-.14-.91-.57,0-.21.11-.43.46-.43.51,0,1.2-.14,1.71-.29,1.14-.29,1.42-1.86,1.65-3.93.28-3,.28-8.64.28-15.49v-12.57c0-11.14,0-13.14-.11-15.42-.11-2.43-.57-3.57-2.45-4.07-.46-.14-1.42-.21-1.94-.21-.23,0-.46-.14-.46-.43,0-.43.28-.57.91-.57,2.56,0,6.15.21,6.43.21s3.87-.21,5.58-.21c.63,0,.91.14.91.57,0,.29-.23.43-.46.43-.4,0-.74.07-1.42.21-1.54.36-1.99,1.57-2.11,4.07-.11,2.28-.11,4.28-.11,15.42v1.5c0,.36.17.43.34.43h24.13Z"/>
  <path class="cls-2" d="M195.17,33.91c-.29,0-.46.21-.57.57l-3.42,12.64c-.51,1.78-.8,3.5-.8,4.78,0,1.43,1.08,2.07,2.05,2.07h.51c.57,0,.74.14.74.43,0,.43-.51.57-1.02.57-1.37,0-3.64-.21-4.27-.21s-3.76.21-6.43.21c-.74,0-1.08-.14-1.08-.57,0-.29.28-.43.8-.43.4,0,.91-.07,1.37-.14,2.62-.43,3.76-3.14,4.78-6.71l12.92-44.34c.68-2.36.91-2.78,1.25-2.78s.57.36,1.25,2.57c.85,2.71,9.79,32.2,13.26,43.05,2.05,6.35,3.7,7.5,4.9,7.93.85.36,1.76.43,2.22.43.34,0,.63.07.63.43,0,.43-.51.57-1.14.57-.85,0-5.01,0-8.94-.14-1.08-.07-1.71-.07-1.71-.5,0-.29.17-.43.4-.5.34-.14.68-.78.34-1.93l-5.29-17.56c-.11-.29-.23-.43-.51-.43h-12.24ZM206.67,31.34c.28,0,.28-.21.23-.5l-5.41-19.28c-.28-1.07-.57-1.07-.85,0l-5.01,19.28c-.11.36,0,.5.17.5h10.87Z"/>
  <path class="cls-2" d="M278.72,23.63c.17,0,.34-.07.34-.43v-1.5c0-11.14,0-13.14-.11-15.42-.11-2.43-.57-3.57-2.45-4.07-.46-.14-1.42-.21-1.94-.21-.23,0-.46-.14-.46-.43,0-.43.28-.57.91-.57,2.56,0,6.15.21,6.43.21s3.87-.21,5.58-.21c.63,0,.91.14.91.57,0,.29-.23.43-.46.43-.4,0-.74.07-1.42.21-1.54.36-1.99,1.57-2.11,4.07-.11,2.28-.11,4.28-.11,15.42v12.57c0,6.85,0,12.49.28,15.49.17,2.07.51,3.64,2.22,3.93.8.14,2.05.29,2.56.29.34,0,.46.21.46.43,0,.36-.28.57-.91.57-3.13,0-6.72-.21-7-.21s-3.87.21-5.58.21c-.63,0-.91-.14-.91-.57,0-.21.11-.43.46-.43.51,0,1.2-.14,1.71-.29,1.14-.29,1.42-1.86,1.65-3.93.28-3,.28-8.64.28-15.49v-7.5c0-.29-.17-.43-.34-.43h-24.13c-.17,0-.34.07-.34.43v7.5c0,6.85,0,12.49.28,15.49.17,2.07.51,3.64,2.22,3.93.8.14,2.05.29,2.56.29.34,0,.46.21.46.43,0,.36-.28.57-.91.57-3.13,0-6.72-.21-7-.21s-3.87.21-5.58.21c-.63,0-.91-.14-.91-.57,0-.21.11-.43.46-.43.51,0,1.2-.14,1.71-.29,1.14-.29,1.42-1.86,1.65-3.93.28-3,.28-8.64.28-15.49v-12.57c0-11.14,0-13.14-.11-15.42-.11-2.43-.57-3.57-2.45-4.07-.46-.14-1.42-.21-1.93-.21-.23,0-.46-.14-.46-.43,0-.43.28-.57.91-.57,2.56,0,6.15.21,6.43.21s3.87-.21,5.58-.21c.63,0,.91.14.91.57,0,.29-.23.43-.46.43-.4,0-.74.07-1.42.21-1.54.36-1.99,1.57-2.11,4.07-.11,2.28-.11,4.28-.11,15.42v1.5c0,.36.17.43.34.43h24.13Z"/>
  <path class="cls-2" d="M341.96,36.48c0-3.86-.57-5.43-1.31-7.5-.4-1.14-8.03-16.85-10.02-20.56-1.42-2.64-2.85-4.43-3.87-5.28-.85-.71-1.93-1.14-2.45-1.14-.28,0-.57-.14-.57-.5,0-.29.23-.5.74-.5,1.08,0,5.35.21,5.63.21.4,0,2.56-.21,4.78-.21.63,0,.74.21.74.5s-.34.36-.85.64c-.46.29-.74.71-.74,1.29,0,.86.29,1.71.74,2.78.62,1.42,4.84,10.53,7.75,16.78,1,2.15,4.24,2.12,5.21-.04,2.56-5.74,6.19-13.56,6.96-15.17.74-1.5.97-2.71.97-3.64,0-1-.23-1.78-.91-2-.51-.21-.85-.36-.85-.71,0-.29.34-.43.91-.43,1.48,0,3.3.21,3.76.21.34,0,4.44-.21,5.52-.21.4,0,.74.14.74.43,0,.36-.28.57-.74.57-.63,0-1.71.29-2.62,1-1.14.86-1.76,1.71-3.02,3.64-1.88,2.86-9.85,19.63-10.87,22.7-.85,2.57-.85,4.78-.85,7.14v6.14c0,1.14,0,4.14.17,7.14.11,2.07.63,3.64,2.33,3.93.8.14,2.05.29,2.56.29.34,0,.46.21.46.43,0,.36-.28.57-.91.57-3.13,0-6.72-.21-7-.21s-3.87.21-5.58.21c-.63,0-.91-.14-.91-.57,0-.21.11-.43.46-.43.51,0,1.2-.14,1.71-.29,1.14-.29,1.65-1.86,1.76-3.93.17-3,.17-6,.17-7.14v-6.14Z"/>
  <ellipse class="cls-1" cx="311.71" cy="25.25" rx="2.91" ry="2.74"/>
  <ellipse class="cls-1" cx="311.71" cy="40.32" rx="2.91" ry="2.74"/>
</svg>